<svg width="32" height="32" viewBox="0 0 32 32" fill="none" xmlns="http://www.w3.org/2000/svg">
<path d="M15.872 31.744C12.9707 31.744 10.3253 31.0187 7.936 29.568C5.54667 28.1173 3.62667 26.1973 2.176 23.808C0.725335 21.4187 1.90735e-06 18.7733 1.90735e-06 15.872C1.90735e-06 12.9707 0.725335 10.3253 2.176 7.93599C3.62667 5.54666 5.54667 3.62666 7.936 2.17599C10.3253 0.725327 12.9707 -7.62939e-06 15.872 -7.62939e-06C18.7733 -7.62939e-06 21.4187 0.725327 23.808 2.17599C26.1973 3.62666 28.1173 5.54666 29.568 7.93599C31.0187 10.3253 31.744 12.9707 31.744 15.872C31.744 18.7733 31.0187 21.4187 29.568 23.808C28.1173 26.1973 26.1973 28.1173 23.808 29.568C21.4187 31.0187 18.7733 31.744 15.872 31.744Z" fill="#D60606"/>
</svg>
